<?xml version="1.0" encoding="UTF-8"?>
<svg width="176px" height="60px" viewBox="0 0 176 60" version="1.1" xmlns="http://www.w3.org/2000/svg" xmlns:xlink="http://www.w3.org/1999/xlink">
    <!-- Generator: Sketch 48.2 (47327) - http://www.bohemiancoding.com/sketch -->
    <title>download-ios</title>
    <desc>Created with Sketch.</desc>
    <defs>
        <path d="M20.8868571,11.4510991 L14.2974286,7.61254054 C14.2974286,7.61254054 2.29285714,0.618378379 1.58714286,0.20727928 C0.881428571,-0.203819819 0.178285714,0.0449729734 0.178285714,0.904360361 C0.178285714,2.33571171 0.178285714,15.8376937 0.178285714,15.8376937 C0.178285714,15.8376937 0.178285714,30.4294054 0.178285714,31.074018 C0.178285714,31.7180541 0.680857143,31.9956757 1.294,31.6387748 C1.90685714,31.2812973 14.2974286,24.0628468 14.2974286,24.0628468 L20.8865714,20.2245766 C20.8865714,20.2245766 26.4774286,16.9677838 27.2205714,16.5350631 C27.9637143,16.1017658 27.8922857,15.5078919 27.2651429,15.1671351 C26.6382857,14.8258018 20.8868571,11.4510991 20.8868571,11.4510991 Z" id="path-1"></path>
        <linearGradient x1="49.999825%" y1="0.000167691941%" x2="49.999825%" y2="99.9999029%" id="linearGradient-3">
            <stop stop-color="#257CB0" offset="0%"></stop>
            <stop stop-color="#4A93B5" offset="28.63%"></stop>
            <stop stop-color="#78BCBB" offset="76.7%"></stop>
            <stop stop-color="#89CFBD" offset="100%"></stop>
        </linearGradient>
        <path d="M20.8868571,11.4510991 L14.2974286,7.61254054 C14.2974286,7.61254054 2.29285714,0.618378379 1.58714286,0.20727928 C0.881428571,-0.203819819 0.178285714,0.0449729734 0.178285714,0.904360361 C0.178285714,2.33571171 0.178285714,15.8376937 0.178285714,15.8376937 C0.178285714,15.8376937 0.178285714,30.4294054 0.178285714,31.074018 C0.178285714,31.7180541 0.680857143,31.9956757 1.294,31.6387748 C1.90685714,31.2812973 14.2974286,24.0628468 14.2974286,24.0628468 L20.8865714,20.2245766 C20.8865714,20.2245766 26.4774286,16.9677838 27.2205714,16.5350631 C27.9637143,16.1017658 27.8922857,15.5078919 27.2651429,15.1671351 C26.6382857,14.8258018 20.8868571,11.4510991 20.8868571,11.4510991 Z" id="path-4"></path>
        <linearGradient x1="0%" y1="49.9996495%" x2="100.000704%" y2="49.9996495%" id="linearGradient-6">
            <stop stop-color="#52C1AD" offset="0%"></stop>
            <stop stop-color="#DEE89A" offset="100%"></stop>
        </linearGradient>
        <path d="M20.8868571,11.4510991 L14.2974286,7.61254054 C14.2974286,7.61254054 2.29285714,0.618378379 1.58714286,0.20727928 C0.881428571,-0.203819819 0.178285714,0.0449729734 0.178285714,0.904360361 C0.178285714,2.33571171 0.178285714,15.8376937 0.178285714,15.8376937 C0.178285714,15.8376937 0.178285714,30.4294054 0.178285714,31.074018 C0.178285714,31.7180541 0.680857143,31.9956757 1.294,31.6387748 C1.90685714,31.2812973 14.2974286,24.0628468 14.2974286,24.0628468 L20.8865714,20.2245766 C20.8865714,20.2245766 26.4774286,16.9677838 27.2205714,16.5350631 C27.9637143,16.1017658 27.8922857,15.5078919 27.2651429,15.1671351 C26.6382857,14.8258018 20.8868571,11.4510991 20.8868571,11.4510991 Z" id="path-7"></path>
        <linearGradient x1="49.9997241%" y1="-0.000876239879%" x2="49.9997241%" y2="100%" id="linearGradient-9">
            <stop stop-color="#EC413D" offset="0%"></stop>
            <stop stop-color="#DA4452" offset="16.68%"></stop>
            <stop stop-color="#B0487A" offset="57.48%"></stop>
            <stop stop-color="#954A92" offset="86.19%"></stop>
            <stop stop-color="#8A4A9D" offset="100%"></stop>
        </linearGradient>
        <path d="M20.8868571,11.4510991 L14.2974286,7.61254054 C14.2974286,7.61254054 2.29285714,0.618378379 1.58714286,0.20727928 C0.881428571,-0.203819819 0.178285714,0.0449729734 0.178285714,0.904360361 C0.178285714,2.33571171 0.178285714,15.8376937 0.178285714,15.8376937 C0.178285714,15.8376937 0.178285714,30.4294054 0.178285714,31.074018 C0.178285714,31.7180541 0.680857143,31.9956757 1.294,31.6387748 C1.90685714,31.2812973 14.2974286,24.0628468 14.2974286,24.0628468 L20.8865714,20.2245766 C20.8865714,20.2245766 26.4774286,16.9677838 27.2205714,16.5350631 C27.9637143,16.1017658 27.8922857,15.5078919 27.2651429,15.1671351 C26.6382857,14.8258018 20.8868571,11.4510991 20.8868571,11.4510991 Z" id="path-10"></path>
        <linearGradient x1="50.0009352%" y1="-0.000985836811%" x2="50.0009352%" y2="100.00092%" id="linearGradient-12">
            <stop stop-color="#F58879" offset="0%"></stop>
            <stop stop-color="#F69079" offset="11.94%"></stop>
            <stop stop-color="#FCB877" offset="71.28%"></stop>
            <stop stop-color="#FEC874" offset="100%"></stop>
        </linearGradient>
    </defs>
    <g id="Page-1" stroke="none" stroke-width="1" fill="none" fill-rule="evenodd">
        <g id="download-ios">
            <rect id="Rectangle-path" fill="#1E222B" fill-rule="nonzero" x="0" y="0" width="176" height="60" rx="6"></rect>
            <g id="if_android-app-on-google-play_720092" transform="translate(14.000000, 14.000000)">
                <g id="PLAY_1_">
                    <g id="polygon130-Clipped">
                        <mask id="mask-2" fill="white">
                            <use xlink:href="#path-1"></use>
                        </mask>
                        <g id="SVGID_7_"></g>
                        <polygon id="polygon130" fill="url(#linearGradient-3)" fill-rule="nonzero" mask="url(#mask-2)" points="16.5025714 15.837982 0.178571429 -0.494414414 0.178571429 15.8376937 0.178571429 32.1695135"></polygon>
                    </g>
                    <g id="polygon137-Clipped">
                        <mask id="mask-5" fill="white">
                            <use xlink:href="#path-4"></use>
                        </mask>
                        <g id="SVGID_7_"></g>
                        <polygon id="polygon137" fill="url(#linearGradient-6)" fill-rule="nonzero" mask="url(#mask-5)" points="0.178571429 -0.494414414 16.5025714 15.837982 20.8868571 11.4510991 14.2977143 7.61225225 0.178571429 -0.613189189"></polygon>
                    </g>
                    <g id="polygon150-Clipped">
                        <mask id="mask-8" fill="white">
                            <use xlink:href="#path-7"></use>
                        </mask>
                        <g id="SVGID_7_"></g>
                        <polygon id="polygon150" fill="url(#linearGradient-9)" fill-rule="nonzero" mask="url(#mask-8)" points="20.8868571 20.224 16.5025714 15.837982 0.178571429 32.1695135 0.178571429 32.2882883 14.2977143 24.0625586"></polygon>
                    </g>
                    <g id="polygon161-Clipped">
                        <mask id="mask-11" fill="white">
                            <use xlink:href="#path-10"></use>
                        </mask>
                        <g id="SVGID_7_"></g>
                        <polygon id="polygon161" fill="url(#linearGradient-12)" fill-rule="nonzero" mask="url(#mask-11)" points="28.4171429 15.8376937 20.8868571 11.4510991 16.5025714 15.837982 20.8868571 20.224"></polygon>
                    </g>
                </g>
                <g id="g163" transform="translate(110.000000, 11.000000)" fill="#F9F9F9" fill-rule="nonzero">
                    <path d="M4.98605556,15.2650794 C4.33033333,15.2650794 3.73205556,15.1393651 3.19030556,14.888254 C2.64855556,14.6368254 2.19327778,14.2501587 1.82569444,13.7288889 L1.71569444,13.7288889 C1.78902778,14.3396825 1.82569444,14.9187302 1.82569444,15.4657143 L1.82569444,19.7701587 L0.301583333,19.7701587 L0.301583333,4.61396825 L1.54152778,4.61396825 L1.75236111,6.04571429 L1.82569444,6.04571429 C2.21802778,5.47269841 2.67452778,5.05968254 3.19488889,4.80507937 C3.71525,4.55047619 4.31261111,4.4231746 4.98575,4.4231746 C6.32102778,4.4231746 7.35166667,4.89746032 8.07705556,5.84539683 C8.80275,6.79333333 9.16575,8.12349206 9.16575,9.83460317 C9.16575,11.5526984 8.79663889,12.8869841 8.05933333,13.8390476 C7.32141667,14.7898413 6.29719444,15.2650794 4.98605556,15.2650794 Z M4.76575,5.76857143 C3.73694444,5.76857143 2.99291667,6.0647619 2.53366667,6.65619048 C2.07441667,7.24793651 1.83852778,8.18984127 1.826,9.4815873 L1.826,9.83428571 C1.826,11.3044444 2.06188889,12.355873 2.53366667,12.9892063 C3.00544444,13.6225397 3.762,13.9384127 4.80241667,13.9384127 C5.67263889,13.9384127 6.35402778,13.5730159 6.84719444,12.8412698 C7.33975,12.1098413 7.58633333,11.1012698 7.58633333,9.8152381 C7.58633333,8.51142857 7.33975,7.51015873 6.84719444,6.81365079 C6.35402778,6.1168254 5.65980556,5.76857143 4.76575,5.76857143 Z" id="path165"></path>
                    <polygon id="path167" points="12.6970556 15.0739683 11.1723333 15.0739683 11.1723333 0.223174603 12.6970556 0.223174603"></polygon>
                    <path d="M21.4640556,15.0739683 L21.1606389,13.5850794 L21.0873056,13.5850794 C20.5849722,14.2409524 20.0844722,14.6850794 19.5851944,14.9165079 C19.0862222,15.1492063 18.4628889,15.2650794 17.7161111,15.2650794 C16.7178611,15.2650794 15.9356389,14.9977778 15.3688333,14.4634921 C14.8020278,13.9292063 14.5190833,13.1692063 14.5190833,12.1825397 C14.5190833,10.0704762 16.14525,8.9631746 19.3969722,8.86095238 L21.10625,8.80349206 L21.10625,8.15460317 C21.10625,7.33365079 20.9360556,6.72730159 20.5959722,6.33650794 C20.2565,5.9447619 19.712,5.74920635 18.9655278,5.74920635 C18.1261667,5.74920635 17.1768056,6.01650794 16.11775,6.55079365 L15.6490278,5.33873016 C16.1455556,5.05873016 16.6885278,4.83936508 17.2800833,4.68031746 C17.8710278,4.52126984 18.4631944,4.4415873 19.0575,4.4415873 C20.2577222,4.4415873 21.1471944,4.71809524 21.7262222,5.27174603 C22.3046389,5.82539683 22.594,6.71301587 22.594,7.93492063 L22.594,15.0736508 L21.4640556,15.0736508 L21.4640556,15.0739683 Z M18.0195278,13.9577778 C18.9682778,13.9577778 19.7138333,13.6873016 20.2561944,13.1466667 C20.7976389,12.6060317 21.0692778,11.8485714 21.0692778,10.8746032 L21.0692778,9.92984127 L19.5436389,9.99619048 C18.3311944,10.0415873 17.4576111,10.2365079 16.9210556,10.584127 C16.3854167,10.9307937 16.1174444,11.4701587 16.1174444,12.2019048 C16.1174444,12.7742857 16.2839722,13.2104762 16.61825,13.5088889 C16.9519167,13.808254 17.4185,13.9577778 18.0195278,13.9577778 Z" id="path169"></path>
                    <path d="M23.4791944,4.61365079 L25.1139167,4.61365079 L27.3188056,10.5790476 C27.8025,11.9409524 28.1028611,12.9238095 28.2195833,13.5285714 L28.2929167,13.5285714 C28.3726667,13.2034921 28.5398056,12.6488889 28.7934167,11.8622222 C29.0476389,11.0761905 29.8793611,8.66063492 31.2873611,4.61365079 L32.9233056,4.61365079 L28.5960278,16.5250794 C28.1676389,17.7022222 27.6668333,18.5374603 27.0936111,19.0314286 C26.5213056,19.524127 25.8182222,19.7701587 24.9861944,19.7701587 C24.5205278,19.7701587 24.0612778,19.7161905 23.6075278,19.608254 L23.6075278,18.3390476 C23.94425,18.4152381 24.3213056,18.4536508 24.7377778,18.4536508 C25.7852222,18.4536508 26.5316944,17.8428571 26.9793333,16.6209524 L27.5394167,15.132381 L23.4791944,4.61365079 Z" id="path171"></path>
                </g>
                <g id="g173" transform="translate(40.000000, 10.000000)" fill="#F9F9F9" fill-rule="nonzero">
                    <path d="M47.0149907,6.3815493 C47.5086093,6.78777465 48.5394744,7.64112676 48.5394744,9.26509859 C48.5394744,10.8444507 47.6373116,11.5933803 46.7351488,12.2970704 C46.4559302,12.5743944 46.133707,12.874338 46.133707,13.3447042 C46.133707,13.8135211 46.4556186,14.0700845 46.6927674,14.262507 L47.4662279,14.8592958 C48.4110837,15.6497465 49.269307,16.3763662 49.269307,17.8503662 C49.269307,19.8576338 47.3147767,21.885662 43.6213628,21.885662 C40.5066419,21.885662 39.0039721,20.4125915 39.0039721,18.8313803 C39.0039721,18.0629296 39.3888326,16.9743944 40.6577814,16.2260845 C41.9884326,15.4145634 43.793693,15.3089014 44.7597395,15.2432113 C44.4580837,14.8592958 44.115293,14.4533803 44.115293,13.7924507 C44.115293,13.4299155 44.2231163,13.2161127 44.3300047,12.9586197 C44.0928558,12.9803099 43.8569535,13.0016901 43.6419302,13.0016901 C41.3661116,13.0016901 40.0775302,11.314507 40.0775302,9.6496338 C40.0775302,8.66707042 40.5290791,7.57729577 41.4514977,6.78808451 C42.6761953,5.7844507 44.1364837,5.61309859 45.2972977,5.61309859 L49.7205442,5.61309859 L48.3459535,6.38185915 L47.0149907,6.38185915 L47.0149907,6.3815493 Z M45.4898837,15.8638592 C45.3181767,15.8415493 45.2103535,15.8415493 44.9965767,15.8415493 C44.8033674,15.8415493 43.6419302,15.8852394 42.741014,16.1848732 C42.268586,16.3543662 40.8936837,16.8668732 40.8936837,18.3839437 C40.8936837,19.8994648 42.3764093,20.990169 44.6746651,20.990169 C46.7351488,20.990169 47.8317674,20.0057465 47.8317674,18.6829577 C47.8314558,17.5916338 47.1225023,17.0174648 45.4898837,15.8638592 Z M46.1131395,11.8059437 C46.6064465,11.3141972 46.6488279,10.6315775 46.6488279,10.2467324 C46.6488279,8.70952113 45.725786,6.31771831 43.943586,6.31771831 C43.3845256,6.31771831 42.783707,6.59504225 42.4399814,7.02264789 C42.0753767,7.47101408 41.9669302,8.04704225 41.9669302,8.60292958 C41.9669302,10.0335493 42.804586,12.4042817 44.6525395,12.4042817 C45.1894744,12.4039718 45.7678558,12.1477183 46.1131395,11.8059437 Z" id="path175"></path>
                    <path d="M33.4937674,15.5220845 C30.0848698,15.5220845 28.2621581,12.8780563 28.2621581,10.489662 C28.2621581,7.69628169 30.5560512,5.30943662 33.816614,5.30943662 C36.9671721,5.30943662 38.9400884,7.76042254 38.9400884,10.3409296 C38.9404,12.8557465 36.9899209,15.5220845 33.4937674,15.5220845 Z M36.1737674,13.7952394 C36.6892,13.1123099 36.8179023,12.2598873 36.8179023,11.4276056 C36.8179023,9.55078873 35.9172977,5.96943662 33.2581767,5.96943662 C32.5507814,5.96943662 31.843386,6.24707042 31.3288884,6.69574648 C30.4924791,7.44095775 30.3416512,8.37952113 30.3416512,9.29732394 C30.3416512,11.4065352 31.3924605,14.8809859 33.9876977,14.8809859 C34.8237953,14.8809859 35.681707,14.4769296 36.1737674,13.7952394 Z" id="path177"></path>
                    <path d="M21.8719163,15.5220845 C18.4623953,15.5220845 16.6393721,12.8780563 16.6393721,10.489662 C16.6393721,7.69628169 18.9342,5.30943662 22.1938279,5.30943662 C25.3453209,5.30943662 27.3179256,7.76042254 27.3179256,10.3409296 C27.3179256,12.8557465 25.3671349,15.5220845 21.8719163,15.5220845 Z M24.5522279,13.7952394 C25.0667256,13.1123099 25.1957395,12.2598873 25.1957395,11.4276056 C25.1957395,9.55078873 24.2945116,5.96943662 21.6353907,5.96943662 C20.928307,5.96943662 20.2202884,6.24707042 19.7061023,6.69574648 C18.869693,7.44095775 18.7198,8.37952113 18.7198,9.29732394 C18.7198,11.4065352 19.769986,14.8809859 22.3655349,14.8809859 C23.2019442,14.8809859 24.0592326,14.4769296 24.5522279,13.7952394 Z" id="path179"></path>
                    <path d="M15.0014558,15.1880563 L11.9182093,15.8954648 C10.6673349,16.0888169 9.54672093,16.2589296 8.3616,16.2589296 C2.41075349,16.2589296 0.148023256,11.9072676 0.148023256,8.4988169 C0.148023256,4.3408169 3.35966047,0.483380282 8.85771163,0.483380282 C10.0222651,0.483380282 11.1422558,0.654422535 12.1553581,0.933295775 C13.7720837,1.38352113 14.5265349,1.94033803 15.0011442,2.26228169 L13.2111535,3.95566197 L12.457014,4.12639437 L12.9958186,3.26870423 C12.2631814,2.56191549 10.9253628,1.25461972 8.38247907,1.25461972 C4.97607442,1.25461972 2.41013023,3.828 2.41013023,7.57884507 C2.41013023,11.6076338 5.34254884,15.4018592 10.0412744,15.4018592 C11.4224093,15.4018592 12.1322977,15.1236056 12.7795488,14.8658028 L12.7795488,11.4152113 L9.52490698,11.5865634 L11.2488326,10.6638028 L15.8194791,10.6638028 L15.2594837,11.1995493 C15.1074093,11.3287606 15.0865302,11.3721408 15.0435256,11.5419437 C15.0210884,11.7352958 15.0008326,12.357493 15.0008326,12.5716056 L15.0008326,15.1880563 L15.0014558,15.1880563 Z" id="path181"></path>
                    <path d="M53.8287349,14.570507 C53.1169767,14.5060563 52.9680186,14.3780845 52.9680186,13.5411549 L52.9680186,13.3050423 L52.9680186,1.40861972 C52.9723814,1.3624507 52.975186,1.31504225 52.9795488,1.27042254 C53.066493,0.52056338 53.2818279,0.391971831 53.950893,0.00557746495 L50.8670233,0.00557746495 L49.2496744,0.77743662 L50.8978744,0.77743662 L50.8978744,0.787042254 L50.8966279,0.779295775 L50.8966279,13.3050423 L50.8966279,14.0130704 C50.8966279,14.4409859 50.8115535,14.5060563 50.3151302,15.1483944 L54.1313256,15.1483944 L54.929093,14.6780282 C54.5629302,14.634338 54.1958326,14.6132676 53.8287349,14.570507 Z" id="path183"></path>
                    <path d="M62.6010605,14.7675775 C62.3664047,14.8955493 62.130814,15.0452113 61.8961581,15.1508732 C61.1884512,15.4700282 60.4608,15.5555493 59.8172884,15.5555493 C59.1338884,15.5555493 58.0625116,15.5115493 56.9696326,14.7248169 C55.4507581,13.6595211 54.7869907,11.8288732 54.7869907,10.2327887 C54.7869907,6.93371831 57.4844419,5.31594366 59.6895209,5.31594366 C60.4604884,5.31594366 61.2535814,5.50712676 61.8958465,5.91242254 C62.9653535,6.6136338 63.2436372,7.52895775 63.3925953,8.01884507 L58.3626093,10.0419155 L56.713786,10.1695775 C57.2482279,12.8730986 59.0893256,14.4471831 61.1239442,14.4471831 C62.2155767,14.4471831 63.0080465,14.0648169 63.7356977,13.7035211 L62.6010605,14.7675775 Z M60.5895023,8.42321127 C60.9955535,8.27478873 61.2096419,8.14650704 61.2096419,7.84873239 C61.2096419,6.99785915 60.2467116,6.01808451 59.0896372,6.01808451 C58.2323488,6.01808451 56.6277767,6.67839437 56.6277767,8.97692958 C56.6277767,9.33884507 56.6707814,9.72183099 56.692907,10.1063662 L60.5895023,8.42321127 Z" id="path185"></path>
                    <g id="g187" transform="translate(63.883721, 5.267606)">
                        <polygon id="path189" points="0.784055814 0.193971831 0.784055814 1.59856338 0.612348837 1.59856338 0.612348837 0.193971831 0.144906977 0.193971831 0.144906977 0.0483380282 1.25118605 0.0483380282 1.25118605 0.193971831"></polygon>
                        <polygon id="path191" points="2.70960465 1.59856338 2.70960465 0.180957746 2.70181395 0.180957746 2.2667814 1.59856338 2.13246977 1.59856338 1.69369767 0.180957746 1.68808837 0.180957746 1.68808837 1.59856338 1.53227442 1.59856338 1.53227442 0.0483380282 1.79933953 0.0483380282 2.19635349 1.30140845 2.20196279 1.30140845 2.59305581 0.0483380282 2.86386047 0.0483380282 2.86386047 1.59856338 2.70960465 1.59856338"></polygon>
                    </g>
                </g>
                <g id="g193" transform="translate(40.000000, 2.000000)" fill="#F9F9FA" fill-rule="nonzero">
                    <path d="M4.41677966,4.7153125 L3.34847458,4.7153125 C3.34847458,4.5675 3.24717514,4.1490625 3.04457627,3.4596875 L1.50240113,3.4596875 C1.29327684,4.1378125 1.18855932,4.55625 1.18855932,4.7153125 L0.183954802,4.7153125 C0.183954802,4.628125 0.443728814,3.911875 0.963276836,2.566875 C1.48282486,1.221875 1.74259887,0.4809375 1.74259887,0.3446875 L3.00449153,0.3446875 C3.00449153,0.4721875 3.23971751,1.2021875 3.71048023,2.535 C4.18124294,3.8678125 4.41677966,4.594375 4.41677966,4.7153125 Z M2.87460452,2.81875 C2.4939548,1.6640625 2.30378531,1.0396875 2.30378531,0.945625 L2.25033898,0.945625 C2.25033898,1.0328125 2.05333333,1.6571875 1.65963277,2.81875 L2.87460452,2.81875 Z" id="path195"></path>
                    <path d="M8.72107345,4.7153125 L7.89669492,4.7153125 C7.89669492,4.6234375 7.59062147,4.1390625 6.97878531,3.261875 C6.33774011,2.3375 5.97293785,1.705625 5.8840678,1.3653125 L5.83062147,1.3653125 C5.88624294,1.8553125 5.91420904,2.2984375 5.91420904,2.6946875 C5.91420904,3.2475 5.92974576,3.92125 5.96081921,4.715625 L5.13954802,4.715625 C5.17279661,4.021875 5.18957627,3.26 5.18957627,2.4296875 C5.18957627,1.6128125 5.17279661,0.9178125 5.13954802,0.345 L6.13079096,0.345 C6.13079096,0.46375 6.40548023,0.9371875 6.95516949,1.765 C7.54028249,2.644375 7.87649718,3.2409375 7.96319209,3.554375 L8.01322034,3.554375 C7.95977401,3.0553125 7.93305085,2.6078125 7.93305085,2.2115625 C7.93305085,1.6053125 7.91751412,0.9828125 7.88644068,0.345 L8.72107345,0.345 C8.68968927,0.9 8.67446328,1.595 8.67446328,2.4296875 C8.67446328,3.270625 8.68968927,4.0325 8.72107345,4.7153125 Z" id="path197"></path>
                    <path d="M13.559209,2.37875 C13.559209,3.014375 13.3566102,3.569375 12.9517232,4.04375 C12.5465254,4.5184375 11.9791243,4.7553125 11.249209,4.7553125 C10.9198305,4.7553125 10.4658475,4.741875 9.88725989,4.715 C9.91615819,4.0390625 9.93076271,3.276875 9.93076271,2.4290625 C9.93076271,1.6146875 9.91615819,0.9196875 9.88725989,0.344375 L10.4714407,0.344375 C10.5671469,0.344375 10.7094633,0.3409375 10.8987006,0.334375 C11.0876271,0.3278125 11.2112994,0.324375 11.269096,0.324375 C12.0723446,0.324375 12.654661,0.5259375 13.0166667,0.92875 C13.3783616,1.3315625 13.559209,1.815 13.559209,2.37875 Z M12.6478249,2.523125 C12.6478249,2.0934375 12.5232203,1.7315625 12.2740113,1.436875 C12.0248023,1.1428125 11.6441525,0.995625 11.1323729,0.995625 C11.0366667,0.995625 10.9055367,1.005625 10.7383616,1.0259375 C10.7604237,1.47375 10.7716102,1.94125 10.7716102,2.4290625 C10.7716102,2.9640625 10.7827966,3.494375 10.8048588,4.0203125 C10.9493503,4.049375 11.0941525,4.0640625 11.2386441,4.0640625 C11.7171751,4.0640625 12.0714124,3.914375 12.3016667,3.615625 C12.5319209,3.316875 12.6478249,2.9528125 12.6478249,2.523125 Z" id="path199"></path>
                    <path d="M18.020113,4.7153125 L17.0319774,4.7153125 C16.7737571,3.923125 16.5758192,3.4340625 16.4378531,3.2484375 C16.299887,3.0625 16.0774011,2.9696875 15.7703955,2.9696875 C15.6411299,2.9696875 15.5177684,2.9709375 15.4,2.973125 C15.4,3.5484375 15.4099435,4.1290625 15.4301412,4.7153125 L14.5022881,4.7153125 C14.5311864,4.039375 14.545791,3.2771875 14.545791,2.429375 C14.545791,1.615 14.5311864,0.92 14.5022881,0.3446875 L15.0796328,0.3446875 C15.1464407,0.3446875 15.2859605,0.34125 15.4985028,0.3346875 C15.7110452,0.328125 15.9074294,0.3246875 16.0876554,0.3246875 C17.1090395,0.3246875 17.619887,0.6759375 17.619887,1.37875 C17.619887,1.9359375 17.3284181,2.3240625 16.7454802,2.54375 L16.7454802,2.5940625 C16.9701412,2.6565625 17.1671469,2.833125 17.3361864,3.1225 C17.5049153,3.4121875 17.7329944,3.943125 18.020113,4.7153125 Z M16.7684746,1.626875 C16.7684746,1.1815625 16.4835311,0.95875 15.9139548,0.95875 C15.7048305,0.95875 15.5199435,0.974375 15.3599153,1.005625 C15.3844633,1.3525 15.3965819,1.8046875 15.3965819,2.361875 C15.5190113,2.3665625 15.6224859,2.3684375 15.7070056,2.3684375 C16.414548,2.36875 16.7684746,2.1215625 16.7684746,1.626875 Z" id="path201"></path>
                    <path d="M22.805113,2.449375 C22.805113,3.13625 22.5959887,3.7059375 22.1774294,4.158125 C21.7588701,4.61 21.2414972,4.83625 20.6253107,4.83625 C20.0377119,4.83625 19.5458192,4.62875 19.1499435,4.2134375 C18.7537571,3.7984375 18.5558192,3.270625 18.5558192,2.6309375 C18.5558192,1.9440625 18.7649435,1.374375 19.1835028,0.9221875 C19.6017514,0.4703125 20.1191243,0.2440625 20.7356215,0.2440625 C21.3232203,0.2440625 21.8148023,0.4509375 22.2109887,0.865 C22.6068644,1.2790625 22.805113,1.806875 22.805113,2.449375 Z M21.8837853,2.5465625 C21.8837853,2.07875 21.764774,1.699375 21.5267514,1.4084375 C21.2884181,1.1175 20.994774,0.9721875 20.6455085,0.9721875 C20.3204802,0.9721875 20.044548,1.11875 19.8177119,1.411875 C19.5908757,1.705 19.4771469,2.0753125 19.4771469,2.523125 C19.4771469,2.9884375 19.5967797,3.3671875 19.8360452,3.659375 C20.0753107,3.9515625 20.3683333,4.0975 20.7157345,4.0975 C21.040452,4.0975 21.3166949,3.9503125 21.5435311,3.6559375 C21.7703672,3.361875 21.8837853,2.991875 21.8837853,2.5465625 Z" id="path203"></path>
                    <path d="M24.6922034,4.7153125 L23.7475706,4.7153125 C23.7764689,4.0215625 23.7910734,3.2596875 23.7910734,2.429375 C23.7910734,1.6125 23.7764689,0.9175 23.7475706,0.3446875 L24.6922034,0.3446875 C24.6633051,0.90875 24.6487006,1.6034375 24.6487006,2.429375 C24.6490113,3.273125 24.6633051,4.035 24.6922034,4.7153125 Z" id="path205"></path>
                    <path d="M29.5306497,2.37875 C29.5306497,3.014375 29.3280508,3.569375 28.9231638,4.04375 C28.5179661,4.5184375 27.950565,4.7553125 27.2206497,4.7553125 C26.8912712,4.7553125 26.4372881,4.741875 25.8587006,4.715 C25.8875989,4.0390625 25.9022034,3.276875 25.9022034,2.4290625 C25.9022034,1.6146875 25.8875989,0.9196875 25.8587006,0.344375 L26.4428814,0.344375 C26.5385876,0.344375 26.680904,0.3409375 26.8701412,0.334375 C27.0590678,0.3278125 27.1827401,0.324375 27.2405367,0.324375 C28.0437853,0.324375 28.6261017,0.5259375 28.9881073,0.92875 C29.3498023,1.3315625 29.5306497,1.815 29.5306497,2.37875 Z M28.6192655,2.523125 C28.6192655,2.0934375 28.494661,1.7315625 28.245452,1.436875 C27.9962429,1.1428125 27.6155932,0.995625 27.1038136,0.995625 C27.0081073,0.995625 26.8769774,1.005625 26.7098023,1.0259375 C26.7318644,1.47375 26.7430508,1.94125 26.7430508,2.4290625 C26.7430508,2.9640625 26.7542373,3.494375 26.7762994,4.0203125 C26.920791,4.049375 27.0655932,4.0640625 27.2100847,4.0640625 C27.6886158,4.0640625 28.0428531,3.914375 28.2731073,3.615625 C28.5033616,3.316875 28.6192655,2.9528125 28.6192655,2.523125 Z" id="path207"></path>
                    <path d="M35.9488701,4.7153125 L34.880565,4.7153125 C34.880565,4.5675 34.7792655,4.1490625 34.5763559,3.4596875 L33.0341808,3.4596875 C32.8250565,4.1378125 32.720339,4.55625 32.720339,4.7153125 L31.7160452,4.7153125 C31.7160452,4.628125 31.9758192,3.911875 32.4953672,2.566875 C33.0149153,1.221875 33.2746893,0.4809375 33.2746893,0.3446875 L34.5365819,0.3446875 C34.5365819,0.4721875 34.7721186,1.2021875 35.2425706,2.535 C35.7130226,3.8678125 35.9488701,4.594375 35.9488701,4.7153125 Z M34.4070056,2.81875 C34.0263559,1.6640625 33.8358757,1.0396875 33.8358757,0.945625 L33.7824294,0.945625 C33.7824294,1.0328125 33.5857345,1.6571875 33.1920339,2.81875 L34.4070056,2.81875 Z" id="path209"></path>
                    <path d="M39.8426836,1.489375 C39.8426836,2.024375 39.6450565,2.419375 39.250113,2.674375 C38.8551695,2.929375 38.3707345,3.0571875 37.7964972,3.0571875 C37.6917797,3.0571875 37.6175141,3.055 37.5727684,3.050625 C37.5727684,3.4715625 37.584887,4.02625 37.609435,4.715625 L36.6713277,4.715625 C36.700226,4.0690625 36.7148305,3.306875 36.7148305,2.4296875 C36.7148305,1.6240625 36.700226,0.9290625 36.6713277,0.345 L37.2520904,0.345 C37.334435,0.345 37.4922881,0.3415625 37.7259605,0.335 C37.9596328,0.3284375 38.1619209,0.325 38.3334463,0.325 C38.7560452,0.325 39.1133898,0.42125 39.4048588,0.61375 C39.6963277,0.80625 39.8426836,1.0978125 39.8426836,1.489375 Z M38.9813277,1.67375 C38.9813277,1.195 38.6653107,0.9553125 38.0332768,0.9553125 C37.875113,0.9553125 37.7082486,0.9721875 37.5326836,1.005625 C37.5572316,1.42875 37.5693503,1.9075 37.5693503,2.4425 C37.6249718,2.4471875 37.6896045,2.4490625 37.7629379,2.4490625 C38.5755085,2.449375 38.9813277,2.1909375 38.9813277,1.67375 Z" id="path211"></path>
                    <path d="M43.8458757,1.489375 C43.8458757,2.024375 43.6482486,2.419375 43.2536158,2.674375 C42.8586723,2.929375 42.3739266,3.0571875 41.7996893,3.0571875 C41.6949718,3.0571875 41.6207062,3.055 41.5759605,3.050625 C41.5759605,3.4715625 41.5880791,4.02625 41.6126271,4.715625 L40.6745198,4.715625 C40.7034181,4.0690625 40.7180226,3.306875 40.7180226,2.4296875 C40.7180226,1.6240625 40.7034181,0.9290625 40.6745198,0.345 L41.2552825,0.345 C41.3376271,0.345 41.4954802,0.3415625 41.7291525,0.335 C41.9628249,0.3284375 42.165113,0.325 42.3366384,0.325 C42.7592373,0.325 43.1165819,0.42125 43.4080508,0.61375 C43.6995198,0.80625 43.8458757,1.0978125 43.8458757,1.489375 Z M42.9848305,1.67375 C42.9848305,1.195 42.6688136,0.9553125 42.0367797,0.9553125 C41.8786158,0.9553125 41.7117514,0.9721875 41.5361864,1.005625 C41.5607345,1.42875 41.5728531,1.9075 41.5728531,2.4425 C41.6284746,2.4471875 41.6931073,2.4490625 41.7664407,2.4490625 C42.5787006,2.449375 42.9848305,2.1909375 42.9848305,1.67375 Z" id="path213"></path>
                    <path d="M50.3914972,2.449375 C50.3914972,3.13625 50.1823729,3.7059375 49.7638136,4.158125 C49.3452542,4.6103125 48.8278814,4.83625 48.2116949,4.83625 C47.624096,4.83625 47.1322034,4.62875 46.7363277,4.2134375 C46.340452,3.7984375 46.1422034,3.270625 46.1422034,2.6309375 C46.1422034,1.9440625 46.3513277,1.374375 46.769887,0.9221875 C47.1884463,0.47 47.7058192,0.2440625 48.3220056,0.2440625 C48.9096045,0.2440625 49.4014972,0.4509375 49.7973729,0.865 C50.1932486,1.2790625 50.3914972,1.806875 50.3914972,2.449375 Z M49.4701695,2.5465625 C49.4701695,2.07875 49.3511582,1.699375 49.1131356,1.4084375 C48.875113,1.1175 48.5811582,0.9721875 48.2318927,0.9721875 C47.9068644,0.9721875 47.6309322,1.11875 47.404096,1.411875 C47.1772599,1.705 47.0635311,2.0753125 47.0635311,2.523125 C47.0635311,2.9884375 47.1831638,3.3671875 47.4224294,3.659375 C47.6616949,3.9515625 47.9547175,4.0975 48.3018079,4.0975 C48.6268362,4.0975 48.9027684,3.9503125 49.1296045,3.6559375 C49.3567514,3.361875 49.4701695,2.991875 49.4701695,2.5465625 Z" id="path215"></path>
                    <path d="M54.915791,4.7153125 L54.0914124,4.7153125 C54.0914124,4.6234375 53.7856497,4.1390625 53.1735028,3.261875 C52.5324576,2.3375 52.1676554,1.705625 52.0787853,1.3653125 L52.025339,1.3653125 C52.0809605,1.8553125 52.1089266,2.2984375 52.1089266,2.6946875 C52.1089266,3.2475 52.1244633,3.92125 52.1555367,4.715625 L51.3342655,4.715625 C51.3675141,4.021875 51.3842938,3.26 51.3842938,2.4296875 C51.3842938,1.6128125 51.3675141,0.9178125 51.3342655,0.345 L52.3255085,0.345 C52.3255085,0.46375 52.6005085,0.9371875 53.149887,1.765 C53.7353107,2.644375 54.0712147,3.2409375 54.1579096,3.554375 L54.2079379,3.554375 C54.1544915,3.0553125 54.1277684,2.6078125 54.1277684,2.2115625 C54.1277684,1.6053125 54.1122316,0.9828125 54.0811582,0.345 L54.915791,0.345 C54.8844068,0.9 54.8691808,1.595 54.8691808,2.4296875 C54.8691808,3.270625 54.8847175,4.0325 54.915791,4.7153125 Z" id="path217"></path>
                </g>
            </g>
        </g>
    </g>
</svg>