<?xml version="1.0" encoding="UTF-8"?>
<svg width="58px" height="92px" viewBox="0 0 58 92" version="1.1" xmlns="http://www.w3.org/2000/svg" xmlns:xlink="http://www.w3.org/1999/xlink">
    <!-- Generator: Sketch 48.2 (47327) - http://www.bohemiancoding.com/sketch -->
    <title>Icon</title>
    <desc>Created with Sketch.</desc>
    <defs></defs>
    <g id="Onboarding-1" stroke="none" stroke-width="1" fill="none" fill-rule="evenodd" transform="translate(-24.000000, -64.000000)">
        <path d="M29.7048283,94.6666667 L76.2953146,94.6666667 C76.8204387,94.6666667 77.2461359,95.0957271 77.2461359,95.625 C77.2461359,95.6486008 77.2452709,95.6721936 77.2435427,95.6957301 L73.46732,147.123968 C73.0998441,152.128608 68.9640294,156 63.9850392,156 L42.0151037,156 C37.0361135,156 32.9002989,152.128608 32.532823,147.123968 L28.7566003,95.6957301 C28.7178433,95.1679007 29.1109608,94.7083435 29.6346527,94.6692804 C29.6580047,94.6675385 29.6814125,94.6666667 29.7048283,94.6666667 Z M25.9017658,88.4375 L80.0983574,88.4375 C81.1486056,88.4375 82,89.2956209 82,90.3541667 C82,90.4124595 81.9973615,90.4707219 81.9920927,90.5287723 L81.8616225,91.9662723 C81.7720614,92.9530428 80.9510107,93.7083333 79.9678872,93.7083333 L26.032236,93.7083333 C25.0491125,93.7083333 24.2280619,92.9530428 24.1385007,91.9662723 L24.0080305,90.5287723 C23.9123544,89.4746281 24.6826477,88.5419018 25.7285288,88.4454697 C25.7861242,88.4401593 25.8439299,88.4375 25.9017658,88.4375 Z M55.1073687,87.5127324 L50.1474876,87.5127324 L50.1474876,72.7244753 C50.1474872,71.6307693 50.8413055,70.6613562 51.8662838,70.3229481 L68.1337977,64.09409 C68.1584917,64.0846346 68.1834416,64.0758725 68.2086185,64.0678139 C68.9593572,63.8275168 69.7612234,64.2461197 69.9996369,65.0027895 L70.6592228,67.0961645 C70.8875017,67.8206695 70.5166714,68.5990663 69.81296,68.8725252 L55.1073687,74.587047 L55.1073687,87.5127324 Z" id="Icon" fill="#D61847"></path>
    </g>
</svg>